<?xml version="1.0" encoding="UTF-8"?>
<!DOCTYPE svg PUBLIC "-//W3C//DTD SVG 1.1//EN" "http://www.w3.org/Graphics/SVG/1.1/DTD/svg11.dtd">
<!-- Creator: CorelDRAW 2020 (64-Bit) -->
<svg xmlns="http://www.w3.org/2000/svg" xml:space="preserve" width="148mm" height="170mm" version="1.1" style="shape-rendering:geometricPrecision; text-rendering:geometricPrecision; image-rendering:optimizeQuality; fill-rule:evenodd; clip-rule:evenodd"
viewBox="0 0 14800 17000"
 xmlns:xlink="http://www.w3.org/1999/xlink"
 xmlns:xodm="http://www.corel.com/coreldraw/odm/2003">
 <defs>
  <style type="text/css">
   <![CDATA[
    .fil0 {fill:#1F1A17}
    .fil12 {fill:#555352}
    .fil15 {fill:#595554}
    .fil17 {fill:#5E5B5A}
    .fil14 {fill:#6A6866}
    .fil9 {fill:#757372}
    .fil8 {fill:#7D7C7A}
    .fil16 {fill:#827C7B}
    .fil13 {fill:#858382}
    .fil11 {fill:#92908F}
    .fil10 {fill:#A6857A}
    .fil6 {fill:#A7A7A7}
    .fil1 {fill:#A8A8A8}
    .fil5 {fill:#E67817}
    .fil4 {fill:#F23535}
    .fil2 {fill:#F5C4B3}
    .fil3 {fill:#F6C5B4}
    .fil7 {fill:#F9F8F7}
   ]]>
  </style>
 </defs>
 <g id="Слой_x0020_1">
  <metadata id="CorelCorpID_0Corel-Layer"/>
  <g id="_2214374780464">
   <path class="fil0" d="M7108.92 16528.71c40.17,-172.4 273.37,-524.68 370.33,-632.09 143.51,-158.93 321.76,-330.79 644.63,-369.62 324.39,-39 588.91,53.45 797.49,202.29 127.53,90.97 363.79,391.88 404.7,608.64 -183.03,121.6 -753.21,207.77 -1012.47,224.26 -420.36,26.74 -791.1,-0.41 -1204.68,-33.48zm2397.04 -245.34c9.09,-115.38 173.36,-406.07 229.72,-484.38 258.79,-359.6 617.93,-462.28 1061.15,-376.11 221.7,43.09 367.07,128.97 485.73,250.3 37.94,38.79 309.32,355.04 224.08,441.25 -50.53,51.11 -485.48,130.56 -590.82,144.96 -482.99,66.07 -922.85,38.96 -1409.86,23.98zm-6691.55 98.91c-636.04,-112.5 -438.61,-1280.11 -295.41,-1800 55.69,-202.21 201.65,-733.31 389.7,-804.98 203.16,-77.41 885.32,7.64 1102.28,62.75 318.2,80.8 589.91,225.12 798.78,394.06 35.49,28.71 133.94,109.68 148.03,148.51 38.67,106.56 -42.15,18.36 78.79,213.44 370.24,597.12 569.13,368.56 648.23,545.09 123.72,276.11 -550.98,718.27 -1060.5,141.06 -162.87,255.86 -495.79,1330.85 -621.79,1436.98 -103.97,87.58 -301.62,50.61 -384.45,-34.62 -85.1,-87.57 31.22,-769.45 59.34,-911.65 24.73,-125.03 92.56,-311.72 102.42,-409.1 -203.42,368.67 -273.6,793.7 -333.92,1223.06 -15.89,113.01 -0.1,129.38 -87.96,174.04 -128.82,65.45 -326.05,71.63 -401.38,-35.86 -39.14,-55.83 -29.49,-153.36 -32.13,-224.58 -27.94,-750.26 102.71,-873.83 156.29,-1424.5 -192.36,262.01 -187.61,940.39 -266.32,1306.3zm2097.33 -2332.9c53.89,-138.86 139.75,-308.01 211.34,-443.3 221.47,-418.51 420.44,-850.01 765.4,-1168.98 -71.46,129.13 -165.1,258.23 -243.41,399.51 -165.25,298.1 -299.8,558.44 -428,879.21 -31.57,79.01 -63.45,156.1 -93,233.81 -14.41,37.85 -29.04,76.38 -44.14,119.48l-52.83 111.38 -115.36 -131.11zm4126.63 -7168.29c29.58,994.27 360.43,1474.11 718.37,2226.04 665.89,1398.75 1301.37,3133.03 803.82,4705.19 -197.51,624.15 -735.99,1521.59 -1509.77,1411.85 -765.67,-108.62 -1041.13,-1168.69 -1108.01,-1830.43 -97.17,-961.33 143.28,-1848.87 116.17,-2777.21 -17.35,-594.37 -164.75,-686.66 -344.92,-1133.78 -730.61,-1813.11 526.3,-1903.57 1227.85,-2537.72 35.77,-32.36 58.01,-62.11 96.49,-63.94zm486.65 1221.69c112.85,96.57 849.44,1168.65 935.01,1298.59 160.43,243.58 274.11,353.3 104.28,438.02 -81.44,-243.65 -1018.1,-1662.97 -1039.29,-1736.61zm-33.66 -46.71c11.16,7.32 7.61,1.39 23.15,21.24 30.49,38.91 -16.43,-47.8 10.51,25.47 -26.19,-18.5 -17.15,41.84 -33.66,-46.71zm0 0c-30.62,-23.03 -12.39,48.27 -31.58,-56.74l31.58 56.74zm-23.46 -774.86c5.12,80.49 -51.02,248.26 -85.43,314.31 -26.18,65.25 -36.94,83 -121.39,75.99 -40.39,-37.22 -37.1,-32.01 -49.71,-95.4l5.98 -84.39c-37.05,-59.97 -36.04,-508.48 -0.09,-567.54 -12.71,-63.27 -9.68,-91.94 3.36,-159.4l305.53 18.21 76.11 14.5c0.35,61.1 -35.14,179.03 -53.26,247.21 -12.5,46.91 -23.44,86.11 -34.97,129.34 -14.6,54.73 -14.23,71.43 -46.13,107.17zm184.81 -673.98c16.72,46.82 5.82,27.88 78.12,40.37 21.95,3.79 60.49,7.15 86.75,10.8 289.73,40.31 933.24,97.81 1059.78,342.33 -92.85,-26.18 -175.04,-65.02 -280.03,-90.7 -273.26,-66.86 -724.34,-116.69 -995.07,-112.54l33.77 -166.05c-58.02,-11.43 -26.24,-2.51 -47.67,-22.12l48.7 -31.32c19.94,17.22 19.07,-30.78 15.65,29.23zm-3493.08 -1062.06c195.28,-40.14 438.57,86.42 566.09,169.19 627.51,407.33 956.99,1261.45 475.52,1341.54 -199.83,33.24 -478.86,-66.61 -640.81,-130.52 -395.82,-156.2 -612.14,-448.47 -650.52,-868.91 -23.78,-260.74 24.83,-465.05 249.72,-511.3zm2818.39 -219.29c93.43,-58.48 171.95,193.5 189.02,300.42 48.05,301.1 1.62,691.59 -69.74,984.45 -58.5,240.04 -181.37,191.1 -267.35,55.33 -66.78,-105.46 -123.66,-230.99 -186.6,-352.07 -55.32,-106.42 -197.31,-231.76 -119.92,-357.99 33.28,-54.34 81.65,-103.53 119.09,-159.08 76.2,-112.96 244.62,-414.14 335.5,-471.06zm692.82 1042.46l-119.64 40.45c-38.14,46.92 -247.66,148.44 -310.5,167.86 1.44,-60.43 10.63,-135.75 20.02,-194.39 13.98,-87.38 31.37,-83.73 98.29,-118.1 27.17,-23.82 41.51,-33.61 72.81,-55.22 9.09,-6.27 28.63,-19.87 39.15,-24.62 37.65,-16.99 -16.14,-1.27 33.1,-7.7 34.52,-45.8 90.26,-76.65 132.62,-106.07 42.76,-29.7 83.08,-60.11 130.42,-84.72l-44.89 298.8 -1.31 35.17 678.92 -237.01c208.54,-56.8 630.11,-139.69 850.24,-85.23 -569.12,129.23 -1168.6,288.46 -1594.75,569.36 9.62,-86 44.5,-157.09 15.52,-198.58zm-1883.93 -790.25l5.91 -49.58 30.37 24.87c51.45,37.82 462.82,497.36 460.77,551.44 -119.36,346.31 -897.96,-24.72 -1048.08,-149.15 -140.9,-116.83 -227.23,-206.13 -296.04,-423.18 -58.11,-183.36 -89.08,-445.13 5.06,-615.71 83.56,29.19 167.63,85.28 240.32,107.58 27.45,21.97 9.65,-24.79 28.11,31.12l-47.77 4.48c-124.84,13.27 -138.22,145.5 -86.67,252.62 40.74,84.6 127.06,165.71 180.35,211.43 93.16,79.94 474.02,286.64 527.67,54.08zm-2208.37 998.58c-70.9,-4.19 -215.33,-140.42 -253.23,-181.63 -65.21,-70.89 -122.08,-149.16 -169.56,-255.39 -136.1,-304.46 -156.08,-998.79 381.38,-1159.6 184.83,-55.32 464.09,-43.92 642.39,37.44l62.56 45.72c-215.53,-17.81 -398.24,-25.82 -591.87,45.66 -183.4,67.71 -258.56,156.45 -282.16,386.67 -20.89,203.84 -2.88,406.32 55.84,588.48 48.38,150.16 190.25,344 154.65,492.65zm985.31 -1619.77c-55.31,-38.69 -84.14,-89.2 -78.1,-187.51 73.87,8.74 169.62,24.96 225.92,60.37l-147.82 127.14zm4937.46 -877.63l-27.07 -54.78c59.53,9.44 27.77,-3.63 58.85,24.06 267.62,-29.74 380.42,-76.36 512.77,-226.57 199.06,-225.92 187.55,-323.92 272.1,-462.7 31.89,25.71 15.85,8.41 36.72,44.48 153.2,264.72 21.18,650.87 -165.91,872.11 -271.4,320.95 -632.28,140.83 -687.46,-196.6zm144.38 -1728.18c863.39,234.54 576.69,1285.29 130.69,1528.54 -165.46,90.24 -385.76,54.79 -453.81,-83.1 -31.8,-64.41 31.89,-135.09 66.88,-205.89 107.17,-216.9 87.71,-399.36 142.74,-479.1 179.57,-260.26 158.82,-461.46 113.5,-760.45zm-1665.16 2671.57c-17.05,-154.21 0.72,-372.55 -1.46,-536.18 -2.38,-177.4 -7.17,-346.16 -15.59,-523.25 -16.43,-345.02 -70.76,-624.01 -108.75,-953.28 -22.73,-196.92 -1.41,-298.8 84.04,-444.73 402.85,-687.78 563.08,-1258.56 604.92,-2083.41 7.88,-155.56 63.02,-306.12 241.88,-265.71 147.64,33.36 170.43,174.79 198.15,324.25 135.58,730.96 -17.32,1229.51 -176.95,1884.74 55.72,-24.29 81.52,-66.59 111.69,-139.05 38.39,-92.17 43.85,-286.77 398.8,-149.98 314.76,121.31 313.68,630.27 183.34,783.97 -34.1,-70.74 -42.34,-173.12 -75.55,-254.2 -195.74,-477.83 -368.69,-131.5 -468.98,33.19 -178.26,292.68 -341.19,483.07 -589.62,699.64l38.92 39.16c157.22,-44.06 361.11,-270.71 446.73,-384.16 112.41,-148.92 267.53,-463.18 354.26,-462.1 108.91,1.35 137.19,222.67 147.91,306.99 72.86,573.25 -189.54,793.41 -296.89,1054.99 114.13,72.3 250.44,213.52 271.94,423.73 24.29,237.47 -80.59,373.43 -140.96,555.03l151.97 -230.74c292.43,-611.31 -259.47,-713.39 -101.27,-835.76 15.58,10.95 77.85,64.88 96.6,82.93 107.83,103.76 81.2,645.33 625.32,603.1 5.33,348.71 -37.16,743.04 -355.16,923.86 -154.53,87.87 -489.03,-470.08 -1625.29,-453.03zm453.63 -4586.13c17.07,78.89 -0.73,193.83 -19.15,273.9l-52.27 344.65 -67.75 322.11c-34.29,147.83 -160.23,614.78 -239.33,687.78 -2.24,64.66 -24.64,89.32 -53.08,154.15 -18.73,42.71 -39.98,111.52 -66.63,126 -14.81,49.23 -14.38,51.05 -37.51,97.14 -7.74,15.46 -15.12,31.16 -23.56,42.14 -19.59,25.47 -8.03,9.48 -30.85,27.57 -0.1,49.68 -42.53,118.09 -72.15,175.47 -23.85,147.41 -38.54,199.35 -19.31,360.43 12.8,70.59 38.23,155.69 25.97,230.26 56.76,77.63 51.59,275.42 63.56,387.19l1.29 139.76c58.89,83.43 50.01,702.44 45.84,845.88l-26.59 587.54 -40.29 393.87 -1.86 98.95c-1.64,59.37 -25.65,53.17 25.57,47.92 80.05,-90.21 709.66,-452.62 973.26,-466.18l-70.59 57.25c-24.79,15.35 -50.25,28.57 -72.5,41.05 -271.4,152.25 -777.81,504.81 -909.12,574.47 0.04,-33.66 9.11,-69.16 8.96,-89.44 -0.37,-52.53 35.18,-66.57 -31.14,-53.32 -53.33,51.34 -155.87,107.33 -219.3,151.1 -65.18,44.98 -160.09,129.8 -229.41,141.69l16.09 -161.91 -8.13 -343.73c-35.39,-131.94 -50.9,-194.63 -98.66,-320.67 -27.77,-38.56 -16.07,-20.97 -30.45,-71.05 -54.35,-30.53 -40.97,-119.3 -128.28,-132.24 -103.35,-15.33 -112,64.99 -158.78,83.2 -16.72,43.92 -10.72,38.75 -38.25,79.06 -7.63,11.18 -13.49,17.53 -23.07,27.28 -20.52,20.93 -3.98,6.84 -30.18,24.29 -5.89,42.88 9.1,1.6 -19.29,54.6l-85.12 127.62c-66.09,99.74 -308.77,456.41 -362.79,496.39 -49.37,-34.59 -96.44,-94.02 -105.9,-143.08 -64.72,-36.65 -171.06,-177.36 -206.45,-241.13 -36.74,-2.9 -39.81,-20.24 -72.17,-56.63 -11.32,-12.72 -22.11,-23.96 -30.35,-34.99 -23.17,-31.06 -12.11,-11.62 -21.28,-36.58 -46.9,-23.67 -40.51,-23.02 -78.35,-60.69 -24.21,-24.09 -33.73,-33.11 -58.54,-52.07l-48.05 -36.55c-1.76,-9.53 -7.53,-26.23 -14.93,-41.29 -31.76,-8.5 1.68,6.71 -40.18,-18.1 -28.48,-16.87 2.76,2.61 -26.2,-20.48l-48.65 -31.68 -18.9 -31.15 -316.24 -217.88 6.2 5.35 -363.69 -172.98 -308.59 -69.25c-177.82,-25.74 -304.19,-32.03 -487.16,-28.33l-146.18 -0.67 -228.19 43.27c-0.66,-108.63 -31.46,-313.69 20.44,-394.09l-9.44 -37.03c8.11,-105.51 1.53,-298.84 59,-371.22 -11.08,-89.89 18.56,-187.22 39.64,-272.12 25.72,-141.34 127.64,-597.02 205.55,-676.97 -0.43,-74.64 37.69,-142.53 63.38,-212.8l-20 1.5c-46.55,50.03 -94.04,167.34 -127.1,194.12l-14.9 35.62 -136.02 305.13c-26.69,109.38 -79.55,228.95 -113.24,343.94 -28.4,97 -60.63,245.86 -92.44,327.42l-59.08 309.45c-15.64,155.95 -24.68,279.73 -17.56,441.2l0.39 62.32 -131.98 33.83 -49.68 -191.43 -63.45 -327.63 -65.56 -657.71c-0.29,-150.92 -44.16,-546.93 7.8,-653.93 -21.38,-77.58 -2.59,-172.24 -10.95,-256.79 -18.23,80.26 -17.59,242.32 -64.93,302.62l-21.07 279.96 -17.76 331.99 -8.78 195.21c40.79,74.95 31.51,345.28 41.95,457.22 13.02,82.46 36.07,181.32 22.19,264.68 48.05,57.08 56.24,223.31 68.15,313.32l-192.82 71.5c-73.25,-79.59 -185.06,-527.71 -207.17,-666.36 -21.45,-73.65 -42.36,-168.88 -32.18,-249.04 -47.85,-62.88 -50.15,-290.32 -59.32,-388.58 -8.34,-77.38 -22.24,-170.14 -6.52,-247.64 -39.47,-62.15 -31.8,-318.35 -37.52,-416.74l-12.18 6.68c-23.61,649.86 -25.35,1011.6 81.4,1640.21 23.92,92.72 77.92,216.77 72.07,305.73 20.9,24.21 1.7,-20.98 27.31,45.7 14.65,38.17 3.26,9.5 9.69,46.23l-257 112.58c-27.26,36.12 -429.73,220.72 -510.43,324.78l-48.92 32.48c-41.61,30.95 -23.66,26.2 -68.14,37.49 -27.67,51.55 -53.02,68.43 -96.5,93.93l-201.59 216.19c-17.91,14.98 -13.41,11.06 -23.88,16.97 -16.84,41.24 -1.68,22.59 -33.13,59.74 -28.44,33.57 -13.82,14.9 -40.84,33.07 -10.52,50.08 -59.83,102.35 -88.52,147.16 -32.38,50.57 -59.33,91.69 -92.4,153.53 -56.44,105.52 -101.99,211.28 -151.39,331.3l-124.71 378.67 -37.07 278.34 -22.82 329.75 7.12 322.6 32.92 326.64 61.69 325.27 82.5 335.43c38.19,99.95 71.63,227.57 107.72,324.73 37.9,102.04 94.16,222.3 122.87,323.09l155.75 344.17 -4.92 2.8c34.32,30.12 31.95,35.54 54.42,80.72 13.25,26.61 23.64,47.48 39.6,75.53 35.9,63.12 54.8,86.58 79.09,158.21 59.08,61.65 147.41,245.16 202.24,327.97 63.91,96.46 161.2,224.62 206.49,315.81 39.04,49.24 74.8,88.14 96.44,144.73 45.9,26.33 114.32,125.63 134.38,186.78 62.25,124.16 -89.14,281.73 -148.01,361.76 -40.24,54.72 -77.42,105.51 -117.85,160.41 -41.92,56.91 -65.61,108.83 -122.91,144.03 -7.96,43.34 6.87,14.81 -29.02,63.96 -23.71,32.48 -17.67,30.7 -41.96,37.15 -28.51,68.56 -43.03,75.09 -84.56,130.71l-88.31 100.77c-9.6,51.03 -125.02,198.88 -156.3,216.14 -20.23,54.02 -24.09,54.78 -62.59,94.05 -38.17,71.24 -428.95,614.12 -472.66,652.91 -21.9,48.99 -33.04,59.41 -63.45,103.3 -11.41,16.45 -17.72,29.67 -32.61,48.32 -29.79,37.31 -12.99,19.87 -46.89,41.59 -5.58,34.39 2.24,10.18 -15.04,44.62 -3.33,6.6 -12.54,20.99 -19.1,29.83 -23.03,31.07 -20.68,29.95 -42.34,41.67 -39.33,103.41 -204.47,313.04 -300.38,513.38 -25.72,53.73 -54.59,136.6 -94.61,178.55 0.31,8.73 -153.15,543.79 -174.58,615.81 -11.19,64.83 -23.05,129.47 -33.82,195.2 -8.4,51.14 -10.31,123.04 -37.05,164.63 13.9,71.13 -2.65,159.92 -11.11,228.66l4.93 410.3 38.75 290.13c32.24,37.92 42.18,88.23 54.15,133.1l140.58 209.56c64.2,27.21 82.39,53.12 171.26,79.47 119.36,15.95 111.81,-23.15 131.4,84.41 12.03,65.9 34.51,117.61 40.01,170.31l145.94 135.89c20.12,17.55 14.13,10.48 29.75,28.38 55.84,-3.46 77.45,16.61 141.87,16.88 58.95,0.25 104.07,-18.37 159.46,-29.27 73.2,-29.93 109.69,-51.36 174.27,-86.4 49.2,-26.73 41.38,-33.73 95.9,-12.69l75.8 63.97c51.17,5.31 76.56,26.31 130.33,43.17 51.1,16 112.96,17.61 167.14,21.95 34.73,-36.76 64.37,-41.9 105.03,-79.43 31.18,-28.77 57.46,-66.96 83.16,-93.39 22.05,-49.68 50.45,-93 71.47,-143.61 18.83,-45.33 33.79,-101.57 62.33,-147.66l12.05 -37.48 106.94 -305.79 126 -340.73 80.43 -184.39 39.8 -74.99c62.72,20.12 119.68,76.07 231.45,119.46l92.58 45.33 307.97 8.52 236.05 -21.49 44.87 121.34c30.74,32.5 99.05,256.48 121.48,320.41 46.26,131.77 100.07,218.58 159.35,312.1 33.15,38.15 76.53,76.9 98.2,114.75 142.7,85.41 82.19,148.47 324.94,148.41l325.35 -3.82c80.45,-6.01 171.42,-18.75 247.86,-3.71 133.17,-87.64 637.61,4.23 826.7,18.46 318.75,23.98 592.97,-2.8 903.9,-22.59l308.29 -56.55 345.59 -108.1c13.88,-12.65 99.26,-57.5 125.49,-71.4 73.43,-38.91 98.97,-21.76 186.18,-14.27l331.69 18.75 59.71 2.29 637.36 -14.86 584.87 -79.01c36.98,-29.23 318.07,-107.69 363.25,-119.55 67.13,-57.8 137.33,-11.78 158.84,-132.23 -46.86,-135.39 -96.57,-204.78 -163.84,-323.09l-3.96 -20.66c-67.32,-38.54 -87.94,-95.01 -139.34,-143.46 -44.98,-42.38 -101.21,-86.26 -154.96,-122.64 -106.54,-72.13 -235.01,-128.78 -371.66,-168.43l-109.77 -31.47c19.56,-94.92 132.99,-420.21 172.42,-498.73 19.92,-79.89 84.85,-294.03 128.18,-338.03 -1.47,-57.15 151.97,-561.96 185.83,-639.19l80.01 -327.18 66.75 -323.56 48.71 -335.4 25.31 -306.6 0.99 -359.47 -43.43 -311.19 -83.94 -321.37 -110.31 -332.09 -45.62 -130.59c-35.76,-45.7 -62.15,-122.24 -61.38,-173.71 -40.37,-44.76 -144.36,-304.79 -155.52,-347.92 -60.84,-109.14 -99.61,-225.86 -152.35,-335.46 -34.25,-71.15 -167.13,-295.54 -74.43,-303.69l99.43 -194.71c2.95,-5.97 16.47,-29.66 19.38,-34.2l18.87 -22.3 23.92 -85.93 112.19 -334.5 88.34 -309.17 155.96 -669.14 69.1 -325.46 62 -329.9 55.1 -314.37 95.24 -636.67c2.78,-15.82 4.71,-26.55 9.29,-41.98 12.18,-41.14 2.34,-16.66 16.2,-36.68 -15.1,-87.37 11.85,-191.8 23.21,-279.48 10.92,-100.66 14.36,-354.98 59.04,-420.22 -14.19,-73.73 0.25,-161.02 10.25,-231.82 18.57,-59.04 9.15,-40.47 67.38,-82.02 36.61,-26.12 37.5,-12.86 47.6,-48.69l64.17 -53.99 16.66 -0.29c20.45,-46.06 74.24,-99.66 111.23,-142.06 28.27,-62.11 54.43,-100.69 80.03,-168.17 21.51,-56.7 29.35,-131.83 60.51,-172.51l5.37 -313.9c-5.37,-41.16 -14.81,-62.45 2.63,-99.81 3.99,-8.6 20.31,-28.25 28.55,-35.76 41.92,-38.27 9.79,-10.37 45.57,-29.46 8.32,-30.65 -4.95,0.9 12.99,-29.45l110.44 -115.3c12.91,-30.18 173.98,-296.1 203.98,-322.88l-5.44 -4.05c38.8,-148.09 81.78,-227.1 64.52,-408.51 -32.34,-118.16 -46.11,-189.79 -106.48,-287.1 -30.31,-48.84 -63.62,-86.67 -87.83,-124.78 -42.24,-66.53 -23.17,-89.08 -26.84,-176.68 -10.77,-159.21 -38.94,-214.37 -73,-343.21 -20.35,-20.25 -31.39,-43.27 -47.63,-67.96 -7.78,-11.85 -18.55,-26.59 -25.56,-39.33 -13.36,-24.35 -11.93,-18.46 -17.22,-41.9l-190.62 -167.58c-52.21,-6.95 -107.28,-41.07 -145.1,-70.53 -44.37,-10.62 -131.11,-44.35 -183.8,-65.53 -66.71,-26.84 -83.28,-58.81 -133.38,-95.09 -92.64,-67.06 -187.13,-113.55 -336.99,-116.42l-163.11 13.36 85.71 -297.3c56.66,-392.07 71.16,-636.87 32.05,-1046.03l-38.85 -273.91c-25.12,-175.51 -142.1,-298.53 -340.21,-317.72 -101,-9.79 -198.85,31.7 -240.15,89.08 -45.37,63.04 -27.99,143.99 -39.56,207.67 -0.96,5.39 -2.2,9.94 -3.28,14.63l-14.75 39.04z"/>
   <path class="fil1" d="M9066.29 8655.6c-302.62,86.31 -491.18,-520.1 -329.5,-803.08 45.78,-80.09 121.5,-103.32 172.84,9.01 34.81,76.15 45.9,178.96 58.21,269.71 21.76,160.17 129.31,399.54 98.45,524.36zm-27.92 -1774.51c-38.48,1.83 -60.72,31.58 -96.49,63.94 -701.55,634.15 -1958.46,724.61 -1227.85,2537.72 180.17,447.12 327.57,539.41 344.92,1133.78 27.11,928.34 -213.34,1815.88 -116.17,2777.21 66.88,661.74 342.34,1721.81 1108.01,1830.43 773.78,109.74 1312.26,-787.7 1509.77,-1411.85 497.55,-1572.16 -137.93,-3306.44 -803.82,-4705.19 -357.94,-751.93 -688.79,-1231.77 -718.37,-2226.04z"/>
   <path class="fil2" d="M2814.41 16382.28c78.71,-365.91 73.96,-1044.29 266.32,-1306.3 -53.58,550.67 -184.23,674.24 -156.29,1424.5 2.64,71.22 -7.01,168.75 32.13,224.58 75.33,107.49 272.56,101.31 401.38,35.86 87.86,-44.66 72.07,-61.03 87.96,-174.04 60.32,-429.36 130.5,-854.39 333.92,-1223.06 -9.86,97.38 -77.69,284.07 -102.42,409.1 -28.12,142.2 -144.44,824.08 -59.34,911.65 82.83,85.23 280.48,122.2 384.45,34.62 126,-106.13 458.92,-1181.12 621.79,-1436.98 509.52,577.21 1184.22,135.05 1060.5,-141.06 -79.1,-176.53 -277.99,52.03 -648.23,-545.09 -120.94,-195.08 -40.12,-106.88 -78.79,-213.44 -14.09,-38.83 -112.54,-119.8 -148.03,-148.51 -208.87,-168.94 -480.58,-313.26 -798.78,-394.06 -216.96,-55.11 -899.12,-140.16 -1102.28,-62.75 -188.05,71.67 -334.01,602.77 -389.7,804.98 -143.2,519.89 -340.63,1687.5 295.41,1800z"/>
   <path class="fil2" d="M9980.53 5022.66c1136.26,-17.05 1470.76,540.9 1625.29,453.03 318,-180.82 360.49,-575.15 355.16,-923.86 -544.12,42.23 -517.49,-499.34 -625.32,-603.1 -18.75,-18.05 -81.02,-71.98 -96.6,-82.93 -158.2,122.37 393.7,224.45 101.27,835.76l-151.97 230.74c60.37,-181.6 165.25,-317.56 140.96,-555.03 -21.5,-210.21 -157.81,-351.43 -271.94,-423.73 107.35,-261.58 369.75,-481.74 296.89,-1054.99 -10.72,-84.32 -39,-305.64 -147.91,-306.99 -86.73,-1.08 -241.85,313.18 -354.26,462.1 -85.62,113.45 -289.51,340.1 -446.73,384.16l-38.92 -39.16c248.43,-216.57 411.36,-406.96 589.62,-699.64 100.29,-164.69 273.24,-511.02 468.98,-33.19 33.21,81.08 41.45,183.46 75.55,254.2 130.34,-153.7 131.42,-662.66 -183.34,-783.97 -354.95,-136.79 -360.41,57.81 -398.8,149.98 -30.17,72.46 -55.97,114.76 -111.69,139.05 159.63,-655.23 312.53,-1153.78 176.95,-1884.74 -27.72,-149.46 -50.51,-290.89 -198.15,-324.25 -178.86,-40.41 -234,110.15 -241.88,265.71 -41.84,824.85 -202.07,1395.63 -604.92,2083.41 -85.45,145.93 -106.77,247.81 -84.04,444.73 37.99,329.27 92.32,608.26 108.75,953.28 8.42,177.09 13.21,345.85 15.59,523.25 2.18,163.63 -15.59,381.97 1.46,536.18z"/>
   <path class="fil3" d="M7108.92 16528.71c413.58,33.07 784.32,60.22 1204.68,33.48 259.26,-16.49 829.44,-102.66 1012.47,-224.26 -40.91,-216.76 -277.17,-517.67 -404.7,-608.64 -208.58,-148.84 -473.1,-241.29 -797.49,-202.29 -322.87,38.83 -501.12,210.69 -644.63,369.62 -96.96,107.41 -330.16,459.69 -370.33,632.09z"/>
   <path class="fil2" d="M9505.96 16283.37c487.01,14.98 926.87,42.09 1409.86,-23.98 105.34,-14.4 540.29,-93.85 590.82,-144.96 85.24,-86.21 -186.14,-402.46 -224.08,-441.25 -118.66,-121.33 -264.03,-207.21 -485.73,-250.3 -443.22,-86.17 -802.36,16.51 -1061.15,376.11 -56.36,78.31 -220.63,369 -229.72,484.38z"/>
   <path class="fil4" d="M6254.97 5674.3c356.65,-109.8 958.11,571.73 597.24,669.58 -372.13,100.92 -971.12,-554.47 -597.24,-669.58zm-95.34 -129.13c-224.89,46.25 -273.5,250.56 -249.72,511.3 38.38,420.44 254.7,712.71 650.52,868.91 161.95,63.91 440.98,163.76 640.81,130.52 481.47,-80.09 151.99,-934.21 -475.52,-1341.54 -127.52,-82.77 -370.81,-209.33 -566.09,-169.19z"/>
   <path class="fil2" d="M11645.69 2351.09c45.32,298.99 66.07,500.19 -113.5,760.45 -55.03,79.74 -35.57,262.2 -142.74,479.1 -34.99,70.8 -98.68,141.48 -66.88,205.89 68.05,137.89 288.35,173.34 453.81,83.1 446,-243.25 732.7,-1294 -130.69,-1528.54z"/>
   <path class="fil4" d="M7823.19 5553.38l-36.28 24.71c-53.65,232.56 -434.51,25.86 -527.67,-54.08 -53.29,-45.72 -139.61,-126.83 -180.35,-211.43 -51.55,-107.12 -38.17,-239.35 86.67,-252.62 12.53,-16.18 8.11,-16.04 19.66,-35.6 -72.69,-22.3 -156.76,-78.39 -240.32,-107.58 -94.14,170.58 -63.17,432.35 -5.06,615.71 68.81,217.05 155.14,306.35 296.04,423.18 150.12,124.43 928.72,495.46 1048.08,149.15 2.05,-54.08 -409.32,-513.62 -460.77,-551.44z"/>
   <path class="fil5" d="M8978.02 5325.88c-90.88,56.92 -259.3,358.1 -335.5,471.06 -37.44,55.55 -85.81,104.74 -119.09,159.08 -77.39,126.23 64.6,251.57 119.92,357.99 62.94,121.08 119.82,246.61 186.6,352.07 85.98,135.77 208.85,184.71 267.35,-55.33 71.36,-292.86 117.79,-683.35 69.74,-984.45 -17.07,-106.92 -95.59,-358.9 -189.02,-300.42z"/>
   <path class="fil1" d="M5578.54 6576.67c35.6,-148.65 -106.27,-342.49 -154.65,-492.65 -58.72,-182.16 -76.73,-384.64 -55.84,-588.48 23.6,-230.22 98.76,-318.96 282.16,-386.67 193.63,-71.48 376.34,-63.47 591.87,-45.66l-62.56 -45.72c-178.3,-81.36 -457.56,-92.76 -642.39,-37.44 -537.46,160.81 -517.48,855.14 -381.38,1159.6 47.48,106.23 104.35,184.5 169.56,255.39 37.9,41.21 182.33,177.44 253.23,181.63z"/>
   <path class="fil2" d="M11533.09 4048.55l-42.11 -3.19 10.33 33.91c55.18,337.43 416.06,517.55 687.46,196.6 187.09,-221.24 319.11,-607.39 165.91,-872.11 -20.87,-36.07 -4.83,-18.77 -36.72,-44.48 -84.55,138.78 -73.04,236.78 -272.1,462.7 -132.35,150.21 -245.15,196.83 -512.77,226.57z"/>
   <path class="fil0" d="M6254.97 5674.3c-373.88,115.11 225.11,770.5 597.24,669.58 360.87,-97.85 -240.59,-779.38 -597.24,-669.58z"/>
   <path class="fil0" d="M9066.29 8655.6c30.86,-124.82 -76.69,-364.19 -98.45,-524.36 -12.31,-90.75 -23.4,-193.56 -58.21,-269.71 -51.34,-112.33 -127.06,-89.1 -172.84,-9.01 -161.68,282.98 26.88,889.39 329.5,803.08z"/>
   <path class="fil1" d="M9720.91 6319.8l-50.07 48.54c28.98,41.49 -5.9,112.58 -15.52,198.58 426.15,-280.9 1025.63,-440.13 1594.75,-569.36 -220.13,-54.46 -641.7,28.43 -850.24,85.23l-678.92 237.01z"/>
   <path class="fil1" d="M4911.74 14049.38l115.36 131.11 52.83 -111.38c15.1,-43.1 29.73,-81.63 44.14,-119.48 29.55,-77.71 61.43,-154.8 93,-233.81 128.2,-320.77 262.75,-581.11 428,-879.21 78.31,-141.28 171.95,-270.38 243.41,-399.51 -344.96,318.97 -543.93,750.47 -765.4,1168.98 -71.59,135.29 -157.45,304.44 -211.34,443.3z"/>
   <path class="fil1" d="M9525.02 8102.78c21.19,73.64 957.85,1492.96 1039.29,1736.61 169.83,-84.72 56.15,-194.44 -104.28,-438.02 -85.57,-129.94 -822.16,-1202.02 -935.01,-1298.59z"/>
   <path class="fil1" d="M9602.26 6797.49c270.73,-4.15 721.81,45.68 995.07,112.54 104.99,25.68 187.18,64.52 280.03,90.7 -126.54,-244.52 -770.05,-302.02 -1059.78,-342.33 -26.26,-3.65 -64.8,-7.01 -86.75,-10.8 -72.3,-12.49 -61.4,6.45 -78.12,-40.37l-16.68 24.21 -33.77 166.05z"/>
   <path class="fil1" d="M9846.06 5779.24c0,39.93 8.47,27.14 -36.74,26.06 -0.31,0.12 -3.9,-2.49 -22.11,7.94 -43.79,25.1 -15.72,5.31 -42.28,29.83 66.32,-13.25 30.77,0.79 31.14,53.32 0.15,20.28 -8.92,55.78 -8.96,89.44 131.31,-69.66 637.72,-422.22 909.12,-574.47 22.25,-12.48 47.71,-25.7 72.5,-41.05l70.59 -57.25c-263.6,13.56 -893.21,375.97 -973.26,466.18z"/>
   <path class="fil6" d="M6563.85 4956.9l147.82 -127.14c-56.3,-35.41 -152.05,-51.63 -225.92,-60.37 -6.04,98.31 22.79,148.82 78.1,187.51z"/>
   <path class="fil7" d="M9636.03 6631.44l16.68 -24.21c3.42,-60.01 4.29,-12.01 -15.65,-29.23l-48.7 31.32c21.43,19.61 -10.35,10.69 47.67,22.12z"/>
   <path class="fil8" d="M9809.32 5805.3c45.21,1.08 36.74,13.87 36.74,-26.06 -51.22,5.25 -27.21,11.45 -25.57,-47.92 -14.86,12.01 -12.08,-21.45 -17.28,32.68 -6.89,71.92 -2.89,15.31 6.11,41.3z"/>
   <path class="fil9" d="M7165.56 5059.96l47.77 -4.48c-18.46,-55.91 -0.66,-9.15 -28.11,-31.12 -11.55,19.56 -7.13,19.42 -19.66,35.6z"/>
   <path class="fil10" d="M11501.31 4079.27l-10.33 -33.91 42.11 3.19c-31.08,-27.69 0.68,-14.62 -58.85,-24.06l27.07 54.78z"/>
   <polygon class="fil11" points="7786.91,5578.09 7823.19,5553.38 7792.82,5528.51 "/>
   <path class="fil12" d="M6074.08 2791.06l20 -1.5c34.58,-65.98 5.56,-21.84 -5.54,-37.87l-14.46 39.37z"/>
   <path class="fil13" d="M9525.02 8102.78c-26.94,-73.27 19.98,13.44 -10.51,-25.47 -15.54,-19.85 -11.99,-13.92 -23.15,-21.24 16.51,88.55 7.47,28.21 33.66,46.71z"/>
   <path class="fil14" d="M9491.36 8056.07l-31.58 -56.74c19.19,105.01 0.96,33.71 31.58,56.74z"/>
   <path class="fil15" d="M11729.55 5499.96c59.06,-30.39 30.25,-3.17 64.17,-53.99l-64.17 53.99z"/>
   <path class="fil9" d="M4046.47 5519.13l48.92 -32.48c-53.13,15.95 -31.24,6.45 -48.92,32.48z"/>
   <path class="fil16" d="M7626.91 5257.11c-17.51,-22.73 2.57,-15.89 -48.65,-31.68l48.65 31.68z"/>
   <path class="fil17" d="M7756.27 5373.53c-19.56,-29.87 -9.36,-20.06 -48.05,-36.55l48.05 36.55z"/>
  </g>
 </g>
</svg>
