<svg width="355" height="226" viewBox="0 0 355 226" fill="none" xmlns="http://www.w3.org/2000/svg">
<path d="M39.982 225.172C39.982 225.172 74.3543 138.261 191.627 138.261H25.9779L39.982 225.172Z" fill="url(#paint0_radial_173_720)"/>
<path d="M321.325 0.118652H42.1997C25.6196 0.298685 -3.60882 6.19474 1.23999 43.0435C5.97715 79.05 37.3907 214.203 39.7992 224.542C39.9268 224.953 39.9986 225.185 39.9986 225.185C39.9986 225.185 44.656 138.261 119.549 138.261H279.688C283.069 138.261 286.203 138.261 289.13 138.191C316.843 136.975 323.423 127.774 329.97 113.333C337.012 97.7991 345.003 73.5526 352.053 50.0648C359.031 26.9113 348.624 0.858071 321.325 0.118652Z" fill="url(#paint1_linear_173_720)"/>
<path d="M336.126 3.59668C350.034 12.3925 354.468 31.2445 349.317 48.5083C342.267 71.9961 334.276 96.2426 327.234 111.777C320.678 126.218 314.107 135.419 286.394 136.634C283.467 136.686 280.333 136.705 276.951 136.705H116.781C54.8232 136.705 40.9228 196.186 37.972 216.736C38.8812 220.684 39.5112 223.391 39.7823 224.541C39.9099 224.953 39.9817 225.184 39.9817 225.184C39.9817 225.184 44.6551 138.261 119.548 138.261H279.687C283.068 138.261 286.202 138.261 289.129 138.19C316.842 136.975 323.422 127.774 329.969 113.333C337.011 97.7986 345.002 73.5521 352.052 50.0643C357.587 31.7139 352.196 11.531 336.126 3.59668Z" fill="url(#paint2_linear_173_720)"/>
<path d="M78.4712 46.5616C83.0439 46.8427 86.1361 46.9833 87.7478 46.9833C88.1788 46.9833 88.5161 46.8615 88.7597 46.6178C89.0221 46.3555 89.1533 46.0088 89.1533 45.5777V42.9072H81.6758V38.9717H89.1533V36.5822C89.1533 35.4578 88.5911 34.8956 87.4666 34.8956H78.7523V30.9601H88.5911C90.5588 30.9601 91.9831 31.4098 92.8639 32.3094C93.7635 33.1902 94.2133 34.6145 94.2133 36.5822V45.5777C94.2133 47.4143 93.7822 48.7636 92.9202 49.6257C92.0581 50.4878 90.7088 50.9188 88.8722 50.9188C86.0611 50.9188 82.5941 50.7314 78.4712 50.3566V46.5616ZM103.774 45.0155H101.666V50.6377H96.7465V35.7389H101.666V41.2205H103.915L105.461 38.1283C106.023 36.9289 106.904 36.1137 108.103 35.6827C108.534 35.5328 108.947 35.4578 109.34 35.4578C109.977 35.4578 110.558 35.5047 111.083 35.5984L111.786 35.7389V39.5339H110.802C110.165 39.5339 109.696 39.815 109.396 40.3772L107.991 43.1883L112.208 50.6377H106.866L103.774 45.0155ZM128.782 46.4211C128.782 47.8266 128.379 48.9323 127.573 49.7381C126.786 50.5253 125.69 50.9188 124.284 50.9188H117.819C116.413 50.9188 115.307 50.5253 114.502 49.7381C113.715 48.9323 113.321 47.8266 113.321 46.4211V39.9556C113.321 38.55 113.715 37.4537 114.502 36.6666C115.307 35.8607 116.413 35.4578 117.819 35.4578H124.284C125.69 35.4578 126.786 35.8607 127.573 36.6666C128.379 37.4537 128.782 38.55 128.782 39.9556V46.4211ZM123.863 40.3772C123.863 39.6276 123.488 39.2528 122.738 39.2528H119.365C118.615 39.2528 118.24 39.6276 118.24 40.3772V45.9994C118.24 46.749 118.615 47.1238 119.365 47.1238H122.738C123.488 47.1238 123.863 46.749 123.863 45.9994V40.3772ZM141.288 41.2205V35.7389H146.207V50.6377H141.288V45.0155H136.228V50.6377H131.309V35.7389H136.228V41.2205H141.288ZM164.195 46.4211C164.195 47.8266 163.792 48.9323 162.986 49.7381C162.199 50.5253 161.103 50.9188 159.697 50.9188H153.232C151.826 50.9188 150.721 50.5253 149.915 49.7381C149.128 48.9323 148.734 47.8266 148.734 46.4211V39.9556C148.734 38.55 149.128 37.4537 149.915 36.6666C150.721 35.8607 151.826 35.4578 153.232 35.4578H159.697C161.103 35.4578 162.199 35.8607 162.986 36.6666C163.792 37.4537 164.195 38.55 164.195 39.9556V46.4211ZM159.276 40.3772C159.276 39.6276 158.901 39.2528 158.151 39.2528H154.778C154.028 39.2528 153.654 39.6276 153.654 40.3772V45.9994C153.654 46.749 154.028 47.1238 154.778 47.1238H158.151C158.901 47.1238 159.276 46.749 159.276 45.9994V40.3772ZM178.107 48.1077H174.452L171.641 43.0478V50.6377H166.722V35.7389H171.922L176.28 43.61L180.637 35.7389H185.837V50.6377H180.918V43.0478L178.107 48.1077ZM198.354 35.7389H203.555V50.6377H198.635V42.4855L193.857 50.6377H188.656V35.7389H193.575V43.8911L198.354 35.7389ZM220.98 35.7389V50.6377H216.061V45.9994H213.671L211.001 50.6377H205.8L208.611 45.7183C207.824 45.4372 207.206 44.9593 206.756 44.2846C206.306 43.61 206.081 42.776 206.081 41.7828V39.9556C206.081 38.6812 206.466 37.6598 207.234 36.8915C208.002 36.1231 209.024 35.7389 210.298 35.7389H220.98ZM211.985 39.2528C211.704 39.2528 211.469 39.3465 211.282 39.5339C211.095 39.7213 211.001 39.9556 211.001 40.2367V41.5017C211.001 41.7828 211.095 42.017 211.282 42.2044C211.469 42.3918 211.704 42.4855 211.985 42.4855H216.061V39.2528H211.985ZM242.202 41.2205V35.7389H247.121V50.6377H242.202V45.0155H237.142V50.6377H232.222V35.7389H237.142V41.2205H242.202ZM255.832 46.9833C256.826 46.9833 257.95 46.7959 259.206 46.4211V44.7344H255.129C254.848 44.7344 254.614 44.8281 254.427 45.0155C254.239 45.2029 254.146 45.4372 254.146 45.7183V45.9994C254.146 46.2805 254.239 46.5148 254.427 46.7022C254.614 46.8896 254.848 46.9833 255.129 46.9833H255.832ZM250.632 36.02C254.061 35.6452 257.153 35.4578 259.908 35.4578C261.183 35.4578 262.204 35.842 262.972 36.6104C263.741 37.3787 264.125 38.4001 264.125 39.6744V50.6377H259.768L259.487 49.2322C258.606 49.8131 257.697 50.2441 256.76 50.5253C255.842 50.7876 255.064 50.9188 254.427 50.9188H253.443C252.168 50.9188 251.147 50.5346 250.379 49.7663C249.61 48.9979 249.226 47.9765 249.226 46.7022V45.4372C249.226 44.1628 249.61 43.1415 250.379 42.3731C251.147 41.6047 252.168 41.2205 253.443 41.2205H259.206V40.0961C259.206 39.815 259.112 39.5807 258.924 39.3933C258.737 39.2059 258.503 39.1122 258.222 39.1122C257.004 39.1122 255.654 39.1684 254.174 39.2809C252.712 39.3933 251.531 39.4777 250.632 39.5339V36.02ZM114.452 75.4211C114.452 76.8266 114.049 77.9323 113.243 78.7381C112.456 79.5253 111.36 79.9188 109.954 79.9188H103.489C102.083 79.9188 100.978 79.5253 100.172 78.7381C99.3846 77.9323 98.991 76.8266 98.991 75.4211V68.9556C98.991 67.55 99.3846 66.4537 100.172 65.6666C100.978 64.8607 102.083 64.4578 103.489 64.4578H109.954C111.36 64.4578 112.456 64.8607 113.243 65.6666C114.049 66.4537 114.452 67.55 114.452 68.9556V75.4211ZM109.533 69.3772C109.533 68.6276 109.158 68.2528 108.408 68.2528H105.035C104.285 68.2528 103.91 68.6276 103.91 69.3772V74.9994C103.91 75.749 104.285 76.1238 105.035 76.1238H108.408C109.158 76.1238 109.533 75.749 109.533 74.9994V69.3772ZM125.412 68.5339V79.6377H120.493V68.5339H115.854V64.7389H130.05V68.5339H125.412ZM146.928 75.4211C146.928 76.8266 146.525 77.9323 145.719 78.7381C144.932 79.5253 143.836 79.9188 142.43 79.9188H135.965C134.559 79.9188 133.453 79.5253 132.647 78.7381C131.86 77.9323 131.467 76.8266 131.467 75.4211V68.9556C131.467 67.55 131.86 66.4537 132.647 65.6666C133.453 64.8607 134.559 64.4578 135.965 64.4578H142.43C143.836 64.4578 144.932 64.8607 145.719 65.6666C146.525 66.4537 146.928 67.55 146.928 68.9556V75.4211ZM142.008 69.3772C142.008 68.6276 141.634 68.2528 140.884 68.2528H137.511C136.761 68.2528 136.386 68.6276 136.386 69.3772V74.9994C136.386 75.749 136.761 76.1238 137.511 76.1238H140.884C141.634 76.1238 142.008 75.749 142.008 74.9994V69.3772ZM164.353 64.7389V79.6377H159.434V68.5339H154.374V79.6377H149.454V64.7389H164.353ZM168.848 79.9188C168.042 79.9188 167.105 79.8251 166.037 79.6377V75.9833H167.161C167.873 75.9833 168.248 75.6085 168.285 74.8588L168.848 64.7389H182.341V79.6377H177.422V68.5339H173.486L173.064 75.7022C172.989 76.9765 172.568 77.9979 171.799 78.7663C171.031 79.5346 170.047 79.9188 168.848 79.9188ZM190.905 67.9717C190.155 67.9717 189.78 68.3465 189.78 69.0961V70.6422H194.559V69.0961C194.559 68.3465 194.184 67.9717 193.435 67.9717H190.905ZM198.916 79.3566C195.3 79.7314 192.02 79.9188 189.078 79.9188C187.803 79.9188 186.782 79.5346 186.014 78.7663C185.245 77.9979 184.861 76.9765 184.861 75.7022V68.9556C184.861 67.55 185.255 66.4537 186.042 65.6666C186.848 64.8607 187.953 64.4578 189.359 64.4578H194.981C196.386 64.4578 197.483 64.8607 198.27 65.6666C199.076 66.4537 199.479 67.55 199.479 68.9556V74.1561H189.78V75.2805C189.78 75.5616 189.874 75.7959 190.062 75.9833C190.249 76.1707 190.483 76.2644 190.764 76.2644C192.62 76.2644 195.337 76.1238 198.916 75.8427V79.3566ZM211.977 70.2205V64.7389H216.896V79.6377H211.977V74.0155H206.917V79.6377H201.998V64.7389H206.917V70.2205H211.977ZM229.403 64.7389H234.603V79.6377H229.684V71.4855L224.905 79.6377H219.704V64.7389H224.624V72.8911L229.403 64.7389ZM247.109 64.7389H252.31V79.6377H247.39V71.4855L242.611 79.6377H237.411V64.7389H242.33V72.8911L247.109 64.7389ZM104.967 96.2689C106.785 95.8941 108.378 95.7067 109.746 95.7067H111.011C112.286 95.7067 113.307 96.0909 114.075 96.8592C114.844 97.6276 115.228 98.649 115.228 99.9233V104.421C115.228 105.827 114.825 106.932 114.019 107.738C113.232 108.525 112.136 108.919 110.73 108.919H104.546C103.14 108.919 102.034 108.525 101.229 107.738C100.441 106.932 100.048 105.827 100.048 104.421V94.4417C100.048 93.0924 100.498 91.9586 101.397 91.0403C102.316 90.122 103.552 89.5691 105.108 89.3817L114.666 88.2573L115.087 92.1928L106.373 93.1767C105.436 93.2891 104.967 93.7577 104.967 94.5822V96.2689ZM109.184 105.124C109.934 105.124 110.308 104.749 110.308 103.999V100.486C110.308 100.204 110.215 99.9702 110.027 99.7828C109.84 99.5954 109.606 99.5017 109.325 99.5017H108.341C107.61 99.5017 106.954 99.5391 106.373 99.6141C105.792 99.6891 105.323 99.7453 104.967 99.7828V103.999C104.967 104.749 105.342 105.124 106.092 105.124H109.184ZM132.666 104.421C132.666 105.827 132.264 106.932 131.458 107.738C130.671 108.525 129.574 108.919 128.169 108.919H121.703C120.298 108.919 119.192 108.525 118.386 107.738C117.599 106.932 117.205 105.827 117.205 104.421V97.9556C117.205 96.55 117.599 95.4537 118.386 94.6666C119.192 93.8607 120.298 93.4578 121.703 93.4578H128.169C129.574 93.4578 130.671 93.8607 131.458 94.6666C132.264 95.4537 132.666 96.55 132.666 97.9556V104.421ZM127.747 98.3772C127.747 97.6276 127.372 97.2528 126.623 97.2528H123.249C122.5 97.2528 122.125 97.6276 122.125 98.3772V103.999C122.125 104.749 122.5 105.124 123.249 105.124H126.623C127.372 105.124 127.747 104.749 127.747 103.999V98.3772ZM136.88 108.919C136.074 108.919 135.137 108.825 134.069 108.638V104.983H135.193C135.905 104.983 136.28 104.608 136.318 103.859L136.88 93.7389H150.373V108.638H145.454V97.5339H141.518L141.096 104.702C141.021 105.977 140.6 106.998 139.831 107.766C139.063 108.535 138.079 108.919 136.88 108.919ZM158.937 96.9717C158.187 96.9717 157.813 97.3465 157.813 98.0961V99.6422H162.591V98.0961C162.591 97.3465 162.217 96.9717 161.467 96.9717H158.937ZM166.949 108.357C163.332 108.731 160.052 108.919 157.11 108.919C155.835 108.919 154.814 108.535 154.046 107.766C153.277 106.998 152.893 105.977 152.893 104.702V97.9556C152.893 96.55 153.287 95.4537 154.074 94.6666C154.88 93.8607 155.985 93.4578 157.391 93.4578H163.013C164.419 93.4578 165.515 93.8607 166.302 94.6666C167.108 95.4537 167.511 96.55 167.511 97.9556V103.156H157.813V104.281C157.813 104.562 157.906 104.796 158.094 104.983C158.281 105.171 158.515 105.264 158.796 105.264C160.652 105.264 163.369 105.124 166.949 104.843V108.357ZM175.793 96.9717C175.043 96.9717 174.668 97.3465 174.668 98.0961V99.6422H179.447V98.0961C179.447 97.3465 179.072 96.9717 178.322 96.9717H175.793ZM183.804 108.357C180.187 108.731 176.908 108.919 173.965 108.919C172.691 108.919 171.67 108.535 170.901 107.766C170.133 106.998 169.749 105.977 169.749 104.702V97.9556C169.749 96.55 170.142 95.4537 170.929 94.6666C171.735 93.8607 172.841 93.4578 174.246 93.4578H179.869C181.274 93.4578 182.37 93.8607 183.158 94.6666C183.963 95.4537 184.366 96.55 184.366 97.9556V103.156H174.668V104.281C174.668 104.562 174.762 104.796 174.949 104.983C175.137 105.171 175.371 105.264 175.652 105.264C177.507 105.264 180.225 105.124 183.804 104.843V108.357ZM194.189 88.9601H209.369V92.8956L202.903 108.638H197.281L204.027 92.8956H194.189V88.9601ZM222.288 94.3011C222.288 93.1767 221.725 92.6145 220.601 92.6145H217.509C216.384 92.6145 215.822 93.1767 215.822 94.3011V103.297C215.822 104.421 216.384 104.983 217.509 104.983H220.601C221.725 104.983 222.288 104.421 222.288 103.297V94.3011ZM227.347 103.297C227.347 105.264 226.898 106.698 225.998 107.598C225.117 108.478 223.693 108.919 221.725 108.919H216.384C214.416 108.919 212.983 108.478 212.083 107.598C211.202 106.698 210.762 105.264 210.762 103.297V94.3011C210.762 92.3334 211.202 90.9091 212.083 90.0283C212.983 89.1287 214.416 88.679 216.384 88.679H221.725C223.693 88.679 225.117 89.1287 225.998 90.0283C226.898 90.9091 227.347 92.3334 227.347 94.3011V103.297ZM232.686 108.638L243.931 88.9601H248.147L237.184 108.638H232.686ZM238.59 95.5661C238.59 96.6906 238.28 97.562 237.662 98.1804C237.062 98.7801 236.2 99.08 235.076 99.08H232.546C231.421 99.08 230.55 98.7801 229.931 98.1804C229.332 97.562 229.032 96.6906 229.032 95.5661V92.1928C229.032 91.0684 229.332 90.2063 229.931 89.6066C230.55 88.9882 231.421 88.679 232.546 88.679H235.076C236.2 88.679 237.062 88.9882 237.662 89.6066C238.28 90.2063 238.59 91.0684 238.59 92.1928V95.5661ZM235.216 92.1928C235.216 91.5369 234.888 91.2089 234.232 91.2089H233.389C232.733 91.2089 232.405 91.5369 232.405 92.1928V95.5661C232.405 96.222 232.733 96.55 233.389 96.55H234.232C234.888 96.55 235.216 96.222 235.216 95.5661V92.1928ZM252.083 105.405C252.083 106.529 251.774 107.401 251.155 108.019C250.555 108.619 249.693 108.919 248.569 108.919H246.039C244.915 108.919 244.043 108.619 243.425 108.019C242.825 107.401 242.525 106.529 242.525 105.405V102.032C242.525 100.907 242.825 100.045 243.425 99.4454C244.043 98.827 244.915 98.5178 246.039 98.5178H248.569C249.693 98.5178 250.555 98.827 251.155 99.4454C251.774 100.045 252.083 100.907 252.083 102.032V105.405ZM248.71 102.032C248.71 101.376 248.382 101.048 247.726 101.048H246.882C246.226 101.048 245.898 101.376 245.898 102.032V105.405C245.898 106.061 246.226 106.389 246.882 106.389H247.726C248.382 106.389 248.71 106.061 248.71 105.405V102.032Z" fill="white"/>
<defs>
<radialGradient id="paint0_radial_173_720" cx="0" cy="0" r="1" gradientUnits="userSpaceOnUse" gradientTransform="translate(102.386 169.818) rotate(180) scale(105.222 84.8338)">
<stop stop-color="#3BBC33"/>
<stop offset="1" stop-color="#2C7927"/>
</radialGradient>
<linearGradient id="paint1_linear_173_720" x1="355.418" y1="136.12" x2="-44.8225" y2="52.985" gradientUnits="userSpaceOnUse">
<stop stop-color="#18F10A"/>
<stop offset="0.11" stop-color="#3BA934"/>
<stop offset="0.24" stop-color="#3BBC33"/>
<stop offset="0.84" stop-color="#31CD27"/>
<stop offset="1" stop-color="#0FFF00"/>
</linearGradient>
<linearGradient id="paint2_linear_173_720" x1="478.472" y1="-32.3584" x2="107.699" y2="315.413" gradientUnits="userSpaceOnUse">
<stop stop-color="#33CC2A"/>
<stop offset="0.1" stop-color="#3A8D35"/>
<stop offset="0.24" stop-color="#3BBC33"/>
<stop offset="0.84" stop-color="#3BBC33"/>
<stop offset="1" stop-color="#31D027"/>
</linearGradient>
</defs>
</svg>
