<svg width="26" height="28" viewBox="0 0 26 28" fill="none" xmlns="http://www.w3.org/2000/svg">
<rect x="0.551636" y="0.746094" width="25.2188" height="26.4596" rx="6.6149" fill="#8540DE"/>
<path d="M19.2644 5.82506C18.8522 5.40942 17.1837 4.08434 13.4638 4.06658C13.4638 4.06658 9.07836 3.77883 6.94246 5.92453C5.75441 7.22473 5.33567 9.13241 5.29023 11.4948C5.24478 13.8572 5.1896 18.2836 9.0881 19.4843H9.09134L9.0881 21.3174C9.0881 21.3174 9.06213 22.0599 9.51008 22.2091C10.0489 22.3938 10.367 21.829 10.8832 21.2215C11.1656 20.8876 11.5551 20.3973 11.8505 20.0243C14.5187 20.2694 16.567 19.7081 16.8007 19.6264C17.3395 19.4346 20.3876 19.0083 20.881 14.5819C21.3938 10.0134 20.6343 7.12882 19.2644 5.82506ZM19.7156 14.248C19.2969 17.9426 16.8267 18.177 16.3722 18.3369C16.1775 18.4044 14.3759 18.8946 12.1134 18.7348C12.1134 18.7348 10.4255 20.9622 9.89961 21.5412C9.72757 21.7295 9.5393 21.7117 9.54254 21.3387C9.54254 21.0936 9.55553 18.2943 9.55553 18.2943C9.55228 18.2943 9.55228 18.2943 9.55553 18.2943C6.25105 17.2925 6.44582 13.5233 6.48152 11.5517C6.51723 9.58003 6.85806 7.96365 7.86434 6.87659C9.67238 5.08259 13.3956 5.34903 13.3956 5.34903C16.541 5.36324 18.0472 6.40056 18.3977 6.7487C19.5566 7.83576 20.1474 10.4362 19.7156 14.248ZM15.2036 11.3776C15.2166 11.6831 14.7979 11.7044 14.7849 11.3989C14.7492 10.6174 14.4149 10.2372 13.7267 10.1946C13.4475 10.1768 13.4735 9.71857 13.7494 9.73634C14.6551 9.78962 15.1582 10.358 15.2036 11.3776ZM15.8626 11.779C15.895 10.2728 15.0348 9.09334 13.4021 8.9619C13.1262 8.94058 13.1554 8.48231 13.4313 8.50363C15.314 8.65283 16.317 10.0703 16.2813 11.7897C16.2781 12.0952 15.8561 12.081 15.8626 11.779ZM17.3882 12.255C17.3915 12.5606 16.9695 12.5641 16.9695 12.2586C16.95 9.36333 15.1874 7.78603 13.0483 7.76826C12.7724 7.76471 12.7724 7.30999 13.0483 7.30999C15.4406 7.32776 17.3655 9.13597 17.3882 12.255ZM17.0214 15.74V15.7471C16.6708 16.4221 16.0151 17.1681 15.34 16.9301L15.3335 16.9194C14.6486 16.7098 13.0353 15.8004 12.016 14.9123C11.4902 14.4576 11.0098 13.9212 10.6397 13.406C10.3054 12.9478 9.96777 12.4042 9.63992 11.7506C8.94852 10.3829 8.79595 9.77186 8.79595 9.77186C8.57847 9.03295 9.25689 8.31534 9.87688 7.93168H9.88338C10.182 7.76116 10.4677 7.818 10.6592 8.07022C10.6592 8.07022 11.0617 8.59599 11.2337 8.85532C11.396 9.09689 11.6135 9.48411 11.7271 9.70081C11.9251 10.088 11.8018 10.4824 11.607 10.6458L11.2175 10.9868C11.0195 11.1609 11.0455 11.4842 11.0455 11.4842C11.0455 11.4842 11.6233 13.875 13.7819 14.4789C13.7819 14.4789 14.0773 14.5073 14.2363 14.2906L14.5479 13.8643C14.6973 13.6512 15.0576 13.5162 15.4114 13.7329C15.8886 14.0277 16.4956 14.486 16.8981 14.9016C17.1253 15.1041 17.1772 15.4132 17.0214 15.74Z" fill="white"/>
</svg>
