<svg width="26" height="28" viewBox="0 0 26 28" fill="none" xmlns="http://www.w3.org/2000/svg">
<g clip-path="url(#clip0_173_32)">
<path d="M12.6347 0.746094C5.6707 0.746094 0.0253296 6.66922 0.0253296 13.9759C0.0253296 21.2826 5.6707 27.2057 12.6347 27.2057C19.5988 27.2057 25.2441 21.2826 25.2441 13.9759C25.2441 6.66922 19.5988 0.746094 12.6347 0.746094Z" fill="#40B3E0"/>
<path d="M18.7701 8.35617L16.5179 20.2701C16.5179 20.2701 16.2029 21.0964 15.3367 20.6998L10.1395 16.5192L8.24963 15.5608L5.06832 14.4371C5.06832 14.4371 4.5801 14.2554 4.53281 13.8588C4.48553 13.4623 5.08408 13.2475 5.08408 13.2475L17.7305 8.04238C17.7305 8.04238 18.77 7.56321 18.77 8.35638" fill="white"/>
<path d="M9.74016 20.1364C9.74016 20.1364 9.58846 20.1215 9.39932 19.4935C9.21047 18.8656 8.24969 15.5609 8.24969 15.5609L15.888 10.4715C15.888 10.4715 16.3291 10.1906 16.3133 10.4715C16.3133 10.4715 16.392 10.5211 16.1557 10.7525C15.9196 10.9839 10.1554 16.4202 10.1554 16.4202" fill="#D2E5F1"/>
<path d="M12.1323 18.1223L10.0766 20.0888C10.0766 20.0888 9.91586 20.2168 9.74011 20.1366L10.1338 16.4839" fill="#B5CFE4"/>
</g>
<defs>
<clipPath id="clip0_173_32">
<rect width="25.2188" height="26.4596" fill="white" transform="translate(0.0253296 0.746094)"/>
</clipPath>
</defs>
</svg>
