<svg width="24" height="24" viewBox="0 0 24 24" fill="none" xmlns="http://www.w3.org/2000/svg">
<path d="M23.8349 12.1878C23.8558 14.4724 23.1974 16.7117 21.9434 18.6214C20.6893 20.5311 18.8962 22.0252 16.7915 22.9139C14.6868 23.8027 12.3655 24.0461 10.1222 23.6133C7.87894 23.1804 5.81486 22.0907 4.19196 20.4827C2.56907 18.8746 1.46054 16.8206 1.00709 14.5814C0.553639 12.3422 0.775711 10.0188 1.64512 7.90601C2.51453 5.79325 3.99206 3.98644 5.89019 2.71492C7.78831 1.44339 10.0214 0.7645 12.3061 0.764404C15.3455 0.764277 18.2621 1.96445 20.4212 4.10378C22.5802 6.24312 23.8071 9.14851 23.8349 12.1878Z" fill="#40AD2E"/>
<path d="M10.6925 17.1759L5.17372 12.4935L7.34715 10.6314L10.6925 13.4698L18.6831 6.69019L20.8778 8.53424L10.6925 17.1759Z" fill="white"/>
</svg>
