<svg width="194" height="38" viewBox="0 0 194 38" fill="none" xmlns="http://www.w3.org/2000/svg">
<path d="M0.17391 29V2.01354H24.9115V6.06151H4.25936V13.4453H20.8635V17.5308H4.25936V24.952H24.9115V29H0.17391ZM33.4806 29C32.1313 29 30.9819 28.5252 30.0324 27.5757C29.0828 26.6262 28.6081 25.4768 28.6081 24.1274V12.1335C28.6081 10.7841 29.0828 9.63471 30.0324 8.68519C30.9819 7.73567 32.1313 7.2609 33.4806 7.2609H50.647V11.3089H34.0429C33.4931 11.3089 33.1183 11.4088 32.9184 11.6087C32.7435 11.7836 32.6561 12.146 32.6561 12.6957V23.5652C32.6561 24.115 32.7435 24.4898 32.9184 24.6897C33.1183 24.8646 33.4931 24.952 34.0429 24.952H50.722V29H33.4806ZM59.3954 29C58.046 29 56.8966 28.5252 55.9471 27.5757C54.9976 26.6262 54.5228 25.4768 54.5228 24.1274V12.1335C54.5228 10.7841 54.9976 9.63471 55.9471 8.68519C56.8966 7.73567 58.046 7.2609 59.3954 7.2609H71.7642C73.1135 7.2609 74.2629 7.73567 75.2124 8.68519C76.162 9.63471 76.6367 10.7841 76.6367 12.1335V24.1274C76.6367 25.4768 76.162 26.6262 75.2124 27.5757C74.2629 28.5252 73.1135 29 71.7642 29H59.3954ZM59.9576 24.952H71.2019C71.7517 24.952 72.114 24.8646 72.2889 24.6897C72.4638 24.4898 72.5513 24.115 72.5513 23.5652V12.6957C72.5513 12.146 72.4638 11.7836 72.2889 11.6087C72.114 11.4088 71.7517 11.3089 71.2019 11.3089H59.9576C59.4079 11.3089 59.0331 11.4088 58.8332 11.6087C58.6582 11.7836 58.5708 12.146 58.5708 12.6957V23.5652C58.5708 24.115 58.6582 24.4898 58.8332 24.6897C59.0331 24.8646 59.4079 24.952 59.9576 24.952Z" fill="white"/>
<path d="M90.7815 29V6.06151H79.3122V2.01354H106.299V6.06151H94.8669V29H90.7815ZM113.787 29C112.438 29 111.288 28.5252 110.339 27.5757C109.389 26.6262 108.914 25.4768 108.914 24.1274V12.1335C108.914 10.7841 109.389 9.63471 110.339 8.68519C111.288 7.73567 112.438 7.2609 113.787 7.2609H126.156C127.505 7.2609 128.655 7.73567 129.604 8.68519C130.554 9.63471 131.028 10.7841 131.028 12.1335V20.1544H112.962V23.5652C112.962 24.115 113.05 24.4898 113.225 24.6897C113.425 24.8646 113.8 24.952 114.349 24.952H131.028V29H113.787ZM112.962 16.3688H126.943V12.6957C126.943 12.146 126.855 11.7836 126.681 11.6087C126.506 11.4088 126.143 11.3089 125.594 11.3089H114.349C113.8 11.3089 113.425 11.4088 113.225 11.6087C113.05 11.7836 112.962 12.146 112.962 12.6957V16.3688ZM134.978 37.6207V7.2609H152.22C153.569 7.2609 154.718 7.73567 155.668 8.68519C156.617 9.63471 157.092 10.7841 157.092 12.1335V24.1274C157.092 25.4768 156.617 26.6262 155.668 27.5757C154.718 28.5252 153.569 29 152.22 29H139.026V37.6207H134.978ZM140.413 24.952H151.657C152.207 24.952 152.569 24.8646 152.744 24.6897C152.944 24.4898 153.044 24.115 153.044 23.5652V12.6957C153.044 12.146 152.944 11.7836 152.744 11.6087C152.569 11.4088 152.207 11.3089 151.657 11.3089H140.413C139.863 11.3089 139.488 11.4088 139.289 11.6087C139.114 11.7836 139.026 12.146 139.026 12.6957V23.5652C139.026 24.115 139.114 24.4898 139.289 24.6897C139.488 24.8646 139.863 24.952 140.413 24.952ZM164.666 29C163.316 29 162.167 28.5252 161.217 27.5757C160.268 26.6262 159.793 25.4768 159.793 24.1274V0.139477H163.841V23.5652C163.841 24.115 163.929 24.4898 164.103 24.6897C164.303 24.8646 164.678 24.952 165.228 24.952H168.714V29H164.666ZM176.341 29C174.992 29 173.842 28.5252 172.893 27.5757C171.943 26.6262 171.469 25.4768 171.469 24.1274V12.1335C171.469 10.7841 171.943 9.63471 172.893 8.68519C173.842 7.73567 174.992 7.2609 176.341 7.2609H188.71C190.059 7.2609 191.209 7.73567 192.158 8.68519C193.108 9.63471 193.582 10.7841 193.582 12.1335V24.1274C193.582 25.4768 193.108 26.6262 192.158 27.5757C191.209 28.5252 190.059 29 188.71 29H176.341ZM176.903 24.952H188.148C188.697 24.952 189.06 24.8646 189.235 24.6897C189.41 24.4898 189.497 24.115 189.497 23.5652V12.6957C189.497 12.146 189.41 11.7836 189.235 11.6087C189.06 11.4088 188.697 11.3089 188.148 11.3089H176.903C176.354 11.3089 175.979 11.4088 175.779 11.6087C175.604 11.7836 175.517 12.146 175.517 12.6957V23.5652C175.517 24.115 175.604 24.4898 175.779 24.6897C175.979 24.8646 176.354 24.952 176.903 24.952Z" fill="#32CC28"/>
</svg>
